<?xml version="1.0" standalone="no"?><!DOCTYPE svg PUBLIC "-//W3C//DTD SVG 1.1//EN" "http://www.w3.org/Graphics/SVG/1.1/DTD/svg11.dtd"><svg t="1532405192074" class="icon" style="" viewBox="0 0 1024 1024" version="1.1" xmlns="http://www.w3.org/2000/svg" p-id="3279" xmlns:xlink="http://www.w3.org/1999/xlink" width="24px" height="24px"><defs><style type="text/css"></style></defs><path d="M1024.001 512.001c0 282.784431-229.250567 512-512 512C229.214569 1024.001 0 794.785431 0 512.001 0 229.214569 229.214569 0 512 0c282.750433 0 512.001 229.214569 512.001 512.001z" fill="#909399" p-id="3280" data-spm-anchor-id="a313x.7781069.0.i9" class=""></path><path d="M530.338925 863.983376c-40.27364 0.002-63.181298-16.191051-75.863554-31.602148-18.373923-22.328692-20.866777-58.428576-8.605496-124.603699 8.610495-46.472277 23.111646-100.409117 37.134824-152.571061 12.953241-48.181177 25.187524-93.68951 29.400277-121.772865 0.965943-6.439623 0.404976-10.75337-0.647962-11.685315-3.4218-3.027823-16.588028-7.526559-44.225408-5.191696-22.205699 1.87689-41.493569 7.184579-41.685558 7.237576-19.445861 5.46868-39.610679-5.867656-45.079359-25.311517-5.46868-19.442861 5.888655-39.646677 25.331516-45.115356 1.010941-0.283983 25.09553-6.99459 53.882843-9.573439 44.559389-3.989766 78.250415 3.778779 100.150132 23.092647 14.591145 12.869246 30.704201 36.742847 24.605558 77.396465-4.829717 32.201113-17.589969 79.663332-31.099178 129.911388-12.63526 46.995246-25.698494 95.591399-34.008007 137.324953-10.340394 51.943956-8.421507 70.439873-7.294573 75.645568 5.1157 3.647786 18.413921 5.362686 38.894721 1.474914 22.222698-4.218753 41.571564-12.764252 41.761553-12.849247 18.417921-8.288514 40.068652-0.075996 48.357167 18.343925 8.288514 18.418921 0.075996 40.068652-18.343925 48.357166-1.093936 0.491971-27.153409 12.126289-58.132594 18.007945-12.728254 2.417858-24.205582 3.482796-34.532977 3.483796zM585.144714 264.678491c-40.331637 0-73.144714-32.811077-73.144714-73.142714s32.813077-73.142714 73.144714-73.142714c40.330637 0 73.141714 32.812077 73.141715 73.142714s-32.811077 73.142714-73.141715 73.142714z" fill="#ffffff" p-id="3281"></path></svg>
