<?xml version="1.0" standalone="no"?><!DOCTYPE svg PUBLIC "-//W3C//DTD SVG 1.1//EN" "http://www.w3.org/Graphics/SVG/1.1/DTD/svg11.dtd"><svg t="1531889653025" class="icon" style="" viewBox="0 0 1024 1024" version="1.1" xmlns="http://www.w3.org/2000/svg" p-id="2126" xmlns:xlink="http://www.w3.org/1999/xlink" width="200" height="200"><defs><style type="text/css"></style></defs><path d="M53.744751 482.652866c0-111.589103-0.09999-217.378772-0.09999-351.065716C180.43238 91.391075 320.118738 43.395762 511.700029 0c191.581291 43.395762 331.167659 91.391075 458.155259 131.68714 0 133.686945-0.09999 239.476614-0.099991 351.065716 0 314.3693-256.574944 487.252417-457.855287 541.247144C310.419686 969.905283 53.744751 797.022166 53.744751 482.652866z" fill="#00A0FF" p-id="2127"></path><path d="M308.519871 518.049409c-1.999805-1.999805-2.299775-5.899424-0.399961-8.199199l18.898155-25.697491c1.799824-2.299775 5.099502-2.899717 7.499267-0.999902l115.988673 88.891319c2.299775 1.799824 6.099404 1.799824 8.49917-0.09999l283.872278-236.476906c2.299775-1.899814 5.899424-1.799824 7.899229 0.29997l17.598281 17.398301c1.999805 1.999805 2.199785 5.399473 0 7.499268l-309.869739 304.970218c-1.999805 1.999805-5.399473 1.999805-7.499268-0.099991L308.519871 518.049409z" fill="#FFFFFF" p-id="2128"></path></svg>